<svg xmlns="http://www.w3.org/2000/svg" width="12.088" height="13.814" viewBox="0 0 12.088 13.814">
  <path id="calendar-alt-solid" d="M0,12.519a1.3,1.3,0,0,0,1.3,1.3h9.5a1.3,1.3,0,0,0,1.3-1.3V5.18H0ZM8.634,7.231a.325.325,0,0,1,.324-.324h1.079a.325.325,0,0,1,.324.324V8.31a.325.325,0,0,1-.324.324H8.958a.325.325,0,0,1-.324-.324Zm0,3.454a.325.325,0,0,1,.324-.324h1.079a.325.325,0,0,1,.324.324v1.079a.325.325,0,0,1-.324.324H8.958a.325.325,0,0,1-.324-.324ZM5.18,7.231A.325.325,0,0,1,5.5,6.907H6.583a.325.325,0,0,1,.324.324V8.31a.325.325,0,0,1-.324.324H5.5A.325.325,0,0,1,5.18,8.31Zm0,3.454a.325.325,0,0,1,.324-.324H6.583a.325.325,0,0,1,.324.324v1.079a.325.325,0,0,1-.324.324H5.5a.325.325,0,0,1-.324-.324ZM1.727,7.231a.325.325,0,0,1,.324-.324H3.13a.325.325,0,0,1,.324.324V8.31a.325.325,0,0,1-.324.324H2.051a.325.325,0,0,1-.324-.324Zm0,3.454a.325.325,0,0,1,.324-.324H3.13a.325.325,0,0,1,.324.324v1.079a.325.325,0,0,1-.324.324H2.051a.325.325,0,0,1-.324-.324Zm9.066-8.958H9.5V.432A.433.433,0,0,0,9.066,0H8.2a.433.433,0,0,0-.432.432v1.3H4.317V.432A.433.433,0,0,0,3.885,0H3.022A.433.433,0,0,0,2.59.432v1.3H1.3A1.3,1.3,0,0,0,0,3.022v1.3H12.088v-1.3A1.3,1.3,0,0,0,10.793,1.727Z" fill="#182d46"/>
</svg>
