<svg width="24" height="24" viewBox="0 0 24 24" fill="none" xmlns="http://www.w3.org/2000/svg">
<path d="M11.9062 9.33018C12.5621 9.33018 13.0938 8.79292 13.0938 8.13018C13.0938 7.46743 12.5621 6.93018 11.9062 6.93018C11.2504 6.93018 10.7188 7.46743 10.7188 8.13018C10.7188 8.79292 11.2504 9.33018 11.9062 9.33018Z" fill="url(#paint0_linear_3992_4080)"/>
<path d="M18.0991 3H5.71344C4.99427 3.00159 4.30501 3.29098 3.79648 3.80486C3.28795 4.31875 3.00157 5.01526 3 5.742V18.258C3.00157 18.9847 3.28795 19.6813 3.79648 20.1951C4.30501 20.709 4.99427 20.9984 5.71344 21H18.0991C18.8182 20.9984 19.5075 20.709 20.016 20.1951C20.5245 19.6813 20.8109 18.9847 20.8125 18.258V5.742C20.8109 5.01526 20.5245 4.31875 20.016 3.80486C19.5075 3.29098 18.8182 3.00159 18.0991 3ZM14.5366 11.952L12.1141 13.944C12.0706 13.9828 12.0147 14.0042 11.9567 14.0042C11.8988 14.0042 11.8428 13.9828 11.7994 13.944L9.86969 11.862C9.76836 11.7513 9.65481 11.6526 9.53125 11.568L9.40656 11.496C9.32409 11.4399 9.23663 11.3917 9.14531 11.352L8.985 11.292L8.72969 11.214H8.5575H8.29031H8.20719H8.06469H7.88656C7.8104 11.2222 7.73498 11.2362 7.66094 11.256L7.50063 11.298L7.25719 11.4H7.15625C7.03576 11.4668 6.92062 11.5431 6.81188 11.628L4.1875 13.752V5.742C4.1875 5.33304 4.34827 4.94082 4.63444 4.65164C4.92061 4.36246 5.30873 4.2 5.71344 4.2H18.0991C18.5038 4.2 18.8919 4.36246 19.1781 4.65164C19.4642 4.94082 19.625 5.33304 19.625 5.742V13.752L17.0303 11.874C16.6596 11.611 16.2145 11.4764 15.7617 11.4905C15.3089 11.5046 14.8728 11.6665 14.5188 11.952H14.5366Z" fill="url(#paint1_linear_3992_4080)"/>
<defs>
<linearGradient id="paint0_linear_3992_4080" x1="10.7188" y1="6.93018" x2="13.2713" y2="7.13687" gradientUnits="userSpaceOnUse">
<stop stop-color="#D487D4"/>
<stop offset="1" stop-color="#A54EA5"/>
</linearGradient>
<linearGradient id="paint1_linear_3992_4080" x1="3" y1="3" x2="22.1445" y2="4.5502" gradientUnits="userSpaceOnUse">
<stop stop-color="#D487D4"/>
<stop offset="1" stop-color="#A54EA5"/>
</linearGradient>
</defs>
</svg>
