<svg xmlns="http://www.w3.org/2000/svg" width="15.781" height="19.711" viewBox="0 0 15.781 19.711">
  <g id="Group_10084" data-name="Group 10084" transform="translate(-106.75 -763.75)">
    <g id="Receipt" transform="translate(107 764)">
      <path id="Path_8326" data-name="Path 8326" d="M105.39,67.2a.369.369,0,0,1-.261-.108L103.936,65.9l-1.193,1.193a.369.369,0,0,1-.522,0L101.028,65.9l-1.193,1.193a.369.369,0,0,1-.522,0L98.119,65.9l-1.193,1.193a.369.369,0,0,1-.522,0L95.21,65.9l-1.193,1.193a.369.369,0,0,1-.522,0L92.3,65.9l-1.193,1.193a.369.369,0,0,1-.63-.261V48.367A.369.369,0,0,1,90.848,48H105.39a.369.369,0,0,1,.369.369V66.831a.369.369,0,0,1-.369.369ZM95.21,65.008a.368.368,0,0,1,.261.108l1.193,1.193,1.193-1.193a.369.369,0,0,1,.522,0l1.193,1.193,1.193-1.193a.369.369,0,0,1,.522,0l1.193,1.193,1.193-1.193a.369.369,0,0,1,.522,0l.824.824v-17.2h-13.8v17.2l.824-.824a.369.369,0,0,1,.522,0l1.193,1.193,1.193-1.193a.368.368,0,0,1,.261-.108Z" transform="translate(-90.478 -47.997)" fill="#fff" stroke="#fff" stroke-width="0.5"/>
      <path id="Path_8327" data-name="Path 8327" d="M163.482,301.736h-8.634a.369.369,0,1,1,0-.739h8.634a.369.369,0,0,1,0,.739Z" transform="translate(-151.524 -289.319)" fill="#fff" stroke="#fff" stroke-width="0.5"/>
      <path id="Path_8328" data-name="Path 8328" d="M163.482,354.072h-8.634a.369.369,0,1,1,0-.739h8.634a.369.369,0,1,1,0,.739Z" transform="translate(-151.524 -339.239)" fill="#fff" stroke="#fff" stroke-width="0.5"/>
    </g>
    <text id="_" data-name="₹" transform="translate(113 772.304)" fill="#fff" font-size="7" font-family="Roboto-Regular, Roboto" letter-spacing="0.03em"><tspan x="0" y="0">₹</tspan></text>
  </g>
</svg>
