<svg xmlns="http://www.w3.org/2000/svg" width="22" height="22" viewBox="0 0 22 22">
  <g id="Group_11459" data-name="Group 11459" transform="translate(-15 -226)">
    <path id="Path_8457" data-name="Path 8457" d="M2,0H20a2,2,0,0,1,2,2V20a2,2,0,0,1-2,2H2a2,2,0,0,1-2-2V2A2,2,0,0,1,2,0Z" transform="translate(15 226)" fill="#609de0"/>
    <g id="Eating" transform="translate(20.236 230.951)">
      <path id="Path_8393" data-name="Path 8393" d="M374.378,36.663v-6.3a.464.464,0,0,0-.464-.464h0a2.011,2.011,0,0,0-2.012,2.012v3.612a.464.464,0,0,0,.464.464h1.083v.619H373.4a1.24,1.24,0,0,0-1.238,1.238v3.1a1.238,1.238,0,1,0,2.476,0v-3.87A.461.461,0,0,0,374.378,36.663Z" transform="translate(-362.873 -29.902)" fill="#fff"/>
      <path id="Path_8394" data-name="Path 8394" d="M202.656,29.9a1.756,1.756,0,0,0-1.754,1.754V33.41a1.751,1.751,0,0,0,1.29,1.684V36.7a1.238,1.238,0,0,0-.774,1.146v3.1a1.238,1.238,0,0,0,2.476,0v-3.1a1.238,1.238,0,0,0-.774-1.146V35.094a1.751,1.751,0,0,0,1.29-1.684V31.656A1.756,1.756,0,0,0,202.656,29.9Z" transform="translate(-196.516 -29.902)" fill="#fff"/>
      <path id="Path_8395" data-name="Path 8395" d="M42.446,29.9a.464.464,0,0,0-.464.464v2.115H41.62V30.366a.464.464,0,1,0-.929,0v2.115h-.361V30.366a.464.464,0,1,0-.929,0V33.2a1.751,1.751,0,0,0,1.29,1.684V36.7a1.238,1.238,0,0,0-.774,1.146v3.1a1.238,1.238,0,0,0,2.476,0v-3.1A1.238,1.238,0,0,0,41.62,36.7V34.888A1.751,1.751,0,0,0,42.91,33.2V30.366a.464.464,0,0,0-.464-.464Z" transform="translate(-39.402 -29.902)" fill="#fff"/>
    </g>
  </g>
</svg>
