<?xml version="1.0" encoding="utf-8"?>
<!-- Generator: Adobe Illustrator 23.0.5, SVG Export Plug-In . SVG Version: 6.00 Build 0)  -->
<svg version="1.1" id="Layer_1" xmlns="http://www.w3.org/2000/svg" xmlns:xlink="http://www.w3.org/1999/xlink" x="0px" y="0px"
	 viewBox="0 0 1435.1 366.3" style="enable-background:new 0 0 1435.1 366.3;" xml:space="preserve">
<style type="text/css">
	.st0{fill:#0B2848;}
	.st1{fill:#4FCC91;}
	.st2{fill:#FFFFFF;}
</style>
<g>
	<g>
		<path class="st1" d="M151.3,236.8l27.4-128.7h55c8.6,0,16,1.6,22.3,4.8c6.3,3.2,11.2,7.7,14.7,13.5c3.5,5.8,5.2,12.7,5.2,20.5
			c0,8.5-2.2,16.1-6.6,22.9c-4.4,6.8-10.4,12.2-18,16.2c-7.6,4-16.2,6-25.7,6h-33.8l-9.6,44.9H151.3z M197,166.8H223
			c4.3,0,8-0.7,11.2-2.2c3.2-1.5,5.7-3.5,7.4-6.2c1.8-2.6,2.7-5.7,2.7-9.3c0-4.7-1.6-8.3-4.7-10.9c-3.1-2.6-7.6-4-13.3-4H204
			L197,166.8z"/>
		<path class="st1" d="M305.1,237.5c-8.9,0-16.1-2.3-21.3-6.9c-5.3-4.6-7.9-10.8-7.9-18.7c0-6.4,1.5-11.8,4.6-16.4
			c3.1-4.5,7.5-8,13.2-10.5c5.8-2.5,12.6-3.7,20.6-3.7c4,0,8.1,0.4,12.2,1.2c4.1,0.8,8.1,1.9,11.9,3.2l0.9-4.6
			c1.2-5.6,0.3-9.8-2.8-12.5c-3.1-2.7-8.3-4-15.8-4c-3.2,0-6.7,0.4-10.6,1.1c-3.9,0.7-8.4,2-13.5,3.7l-6.6-21
			c7.5-2.7,14.4-4.7,20.7-6c6.3-1.3,12.3-1.9,17.9-1.9c10,0,18.4,1.6,24.9,4.9c6.6,3.2,11.1,7.9,13.7,13.9c2.6,6,2.9,13.2,1.1,21.7
			l-12.1,55.7h-28.9l1.8-8.1c-4.5,3.2-8.6,5.5-12.3,6.8C313.2,236.9,309.3,237.5,305.1,237.5z M316.9,218.4c2.8,0,5.5-0.3,8-1
			c2.5-0.7,4.9-1.7,7.3-3l2.9-13.4c-2.3-0.6-5-1.1-7.9-1.5c-2.9-0.4-5.9-0.6-9-0.6c-5,0-8.9,0.9-11.6,2.8c-2.7,1.8-4,4.5-4,7.9
			c0,2.7,1.3,4.8,3.8,6.4C308.9,217.6,312.4,218.4,316.9,218.4z"/>
		<path class="st1" d="M382.7,277.1c-2.5,0-5-0.2-7.6-0.6c-2.6-0.4-5.5-1-8.7-1.8l5.3-24.8c1.6,0.4,3.2,0.6,4.8,0.8s3,0.3,4.2,0.3
			c4.3,0,7.8-0.6,10.5-1.9c2.7-1.3,4.8-3.5,6.4-6.5l2.2-4l-13.6-96.5h30.2l6.1,63.8l36-63.8h31.8l-64.9,108.1
			c-5.5,9.2-11.7,16-18.7,20.4C399.8,274.9,391.8,277.1,382.7,277.1z"/>
	</g>
	<g>
		<path class="st2" d="M502.9,236.8l27.4-128.7h95.2l-5.9,26.5h-64.2l-5.1,24.5h45.4l-5.5,25.7h-45.4l-5.3,25.6h65.3l-5.9,26.5
			H502.9z"/>
	</g>
	<g>
		<path class="st2" d="M746.6,275.2l29-133.3h28.9l-1.8,9.6c6.7-6.7,14.8-10.1,24.3-10.1c6.7,0,12.8,1.9,18.1,5.8
			c5.3,3.9,9.6,9.1,12.8,15.6c3.2,6.6,4.8,13.9,4.8,22c0,7.2-1.3,14-3.8,20.4c-2.5,6.4-5.9,12-10.3,16.8c-4.4,4.8-9.4,8.6-15.3,11.3
			c-5.8,2.7-12,4-18.7,4c-6,0-11.3-1.3-15.9-3.8c-4.6-2.5-8.3-6.2-11.1-11.1l-11.8,52.8H746.6z M814.1,165.8c-5.8,0-11,2.1-15.6,6.3
			l-6.8,31.6c2.1,2.7,4.7,4.9,7.9,6.5c3.2,1.7,6.7,2.5,10.5,2.5c4.7,0,8.8-1.1,12.4-3.4c3.6-2.3,6.5-5.3,8.5-9.2
			c2.1-3.9,3.1-8.2,3.1-13c0-6.3-1.9-11.4-5.7-15.4C824.6,167.8,819.8,165.8,814.1,165.8z"/>
		<path class="st2" d="M923.3,238.8c-8.9,0-16.9-1.9-23.9-5.7c-7-3.8-12.5-9.1-16.5-15.9c-4-6.8-6-14.6-6-23.3
			c0-7.2,1.3-14.1,4-20.5c2.7-6.4,6.4-12.1,11.1-17.1c4.7-5,10.2-8.9,16.5-11.7c6.3-2.8,12.9-4.2,19.9-4.2c8.2,0,15.4,1.8,21.6,5.3
			c6.2,3.6,11,8.5,14.5,14.9c3.5,6.4,5.2,13.8,5.2,22.2c0,2.8-0.1,5.4-0.3,7.6c-0.2,2.3-0.5,4.4-0.8,6.3h-63.6
			c0.6,3.7,1.9,6.9,3.8,9.7c1.9,2.8,4.3,4.9,7.4,6.4c3,1.5,6.4,2.3,10.2,2.3c3.6,0,6.9-0.6,9.9-1.7c3.1-1.2,5.7-2.9,7.9-5.2l16,18
			c-6,4.4-12,7.6-17.8,9.6C936.5,237.9,930.1,238.8,923.3,238.8z M906.9,180.2h37.1c-0.5-3.4-1.5-6.3-3-8.7
			c-1.5-2.4-3.5-4.3-5.9-5.6c-2.4-1.3-5.2-2-8.4-2c-2.9,0-5.7,0.7-8.3,2c-2.6,1.4-4.8,3.2-6.8,5.7
			C909.7,174,908.1,176.9,906.9,180.2z"/>
		<path class="st2" d="M978.3,236.8l20.6-94.9h29.2l-3.1,14.7c4.4-5.1,9.3-9.1,14.5-11.8c5.3-2.7,10.8-4,16.5-4
			c6.4,0,11.7,1.4,15.9,4.3c4.2,2.9,7.1,6.9,8.7,12c1.6,5.1,1.7,11,0.2,17.7l-13.2,62h-29.2l11.8-54.6c1.2-5.4,0.7-9.8-1.7-13.2
			c-2.3-3.4-6-5.1-11-5.1c-2.8,0-5.5,0.6-8.1,1.7c-2.6,1.2-5.1,3-7.5,5.4l-14.3,65.8H978.3z"/>
		<path class="st2" d="M1132,238.8c-8.8,0-17.2-1.4-25.2-4c-8-2.7-14.6-6.3-19.9-10.8l15.4-18.9c6.5,4.3,12,7.4,16.6,9.2
			c4.6,1.8,9.2,2.8,13.7,2.8c3.6,0,6.4-0.7,8.6-2.2c2.2-1.5,3.3-3.4,3.3-5.7c0-1.7-0.6-3.1-1.7-4.1c-1.2-1-3-1.9-5.6-2.5l-17.5-4.4
			c-7.2-2.1-12.8-5.3-16.6-9.6c-3.9-4.3-5.8-9.5-5.8-15.6c0-10.2,3.4-18.1,10.1-23.9c6.7-5.8,16.1-8.6,27.9-8.6
			c7.6,0,14.8,1.2,21.7,3.5c6.9,2.3,13.2,5.8,18.9,10.3l-15.6,17.8c-4.5-3.3-9.1-5.8-13.7-7.5c-4.6-1.7-8.9-2.6-13-2.6
			c-3.4,0-6.1,0.6-7.9,1.7c-1.8,1.2-2.8,2.8-2.8,5.1c0,1.7,0.6,3.1,1.7,4c1.2,1,3.3,1.9,6.3,2.8l17.1,4.4c7.6,2,13.4,5.1,17.5,9.3
			c4,4.2,6.1,9.3,6.1,15.4c0,6.5-1.7,12.3-5.2,17.6c-3.5,5.2-8.2,9.3-14.2,12.3C1146.4,237.3,1139.5,238.8,1132,238.8z"/>
		<path class="st2" d="M1233.8,238.8c-8.9,0-16.9-1.9-23.9-5.7c-7-3.8-12.5-9.1-16.5-15.9c-4-6.8-6-14.6-6-23.3
			c0-7.2,1.3-14.1,4-20.5c2.7-6.4,6.4-12.1,11.1-17.1c4.7-5,10.2-8.9,16.5-11.7c6.3-2.8,12.9-4.2,19.9-4.2c8.2,0,15.4,1.8,21.6,5.3
			c6.2,3.6,11,8.5,14.5,14.9c3.5,6.4,5.2,13.8,5.2,22.2c0,2.8-0.1,5.4-0.3,7.6c-0.2,2.3-0.5,4.4-0.8,6.3h-63.6
			c0.6,3.7,1.9,6.9,3.8,9.7c1.9,2.8,4.3,4.9,7.4,6.4c3,1.5,6.4,2.3,10.2,2.3c3.6,0,6.9-0.6,9.9-1.7c3.1-1.2,5.7-2.9,7.9-5.2l16,18
			c-6,4.4-12,7.6-17.8,9.6C1247,237.9,1240.7,238.8,1233.8,238.8z M1217.4,180.2h37.1c-0.5-3.4-1.5-6.3-3-8.7
			c-1.5-2.4-3.5-4.3-5.9-5.6c-2.4-1.3-5.2-2-8.4-2c-2.9,0-5.7,0.7-8.3,2c-2.6,1.4-4.8,3.2-6.8,5.7
			C1220.3,174,1218.7,176.9,1217.4,180.2z"/>
	</g>
	<g>
		<g>
			<g>
				<path class="st2" d="M710.2,180.1l29.7,56.4h-38.3l-15.2-31.2l-28.1,31.2h-39.4l54.9-58.1"/>
			</g>
		</g>
		<g>
			<g>
				<path class="st1" d="M748.5,99.1l-51,55.2l-14.3-29.5h-38.3l28.4,54.1l13.2,26.4l50.8-53.1v0l50.9-53.2H748.5z"/>
			</g>
		</g>
	</g>
</g>
</svg>
