<svg width="64" height="66" viewBox="0 0 64 66" fill="none" xmlns="http://www.w3.org/2000/svg">
<path d="M34.1043 13.8323H12.6021C11.8814 13.8323 11.3839 13.1014 11.658 12.4414C11.7005 12.3371 14.2486 6.07322 14.2062 6.17761C14.3585 5.79183 14.7341 5.53803 15.1503 5.53803H19.6883V4.48223C19.6883 2.4518 21.333 0.817261 23.3532 0.817261C25.3864 0.817261 27.008 2.47363 27.008 4.48223V5.53803H31.5562C31.9724 5.53803 32.3378 5.79183 32.5003 6.17761C32.5426 6.28206 35.0806 12.5459 35.0383 12.4414C35.3124 13.1014 34.8251 13.8323 34.1043 13.8323Z" fill="url(#paint0_linear)"/>
<path d="M46.5914 12.015V60.4101C46.5914 63.07 44.429 65.2324 41.7691 65.2324H4.92705C2.2672 65.2324 0.104797 63.07 0.104797 60.4101V12.015C0.104797 9.35515 2.2672 7.19275 4.92705 7.19275H12.1452C11.6884 8.33994 11.059 9.87292 10.663 10.8577H6.3687C4.82555 10.8577 3.57686 12.1063 3.57686 13.6495V58.3696C3.57686 59.9127 4.82555 61.1614 6.3687 61.1614H39.5559C41.099 61.1614 42.3477 59.9127 42.3477 58.3696V13.6495C42.3477 12.1063 41.099 10.8577 39.5559 10.8577H36.0433C35.6372 9.86277 35.0179 8.33995 34.5509 7.19275H41.7691C44.429 7.19275 46.5914 9.35516 46.5914 12.015Z" fill="url(#paint1_linear)"/>
<path d="M39.556 12.3804H36.6018C36.7134 13.02 36.5815 13.6799 36.216 14.2281C35.7389 14.9387 34.9571 15.3549 34.1043 15.3549H12.6022C11.7494 15.3549 10.9575 14.9286 10.4804 14.2179C10.1149 13.6697 9.98295 13.0098 10.1048 12.3804H6.36881C5.65815 12.3804 5.09979 12.9387 5.09979 13.6494V58.3695C5.09979 59.0801 5.65815 59.6385 6.36881 59.6385H39.556C40.2667 59.6385 40.825 59.0801 40.825 58.3695V13.6494C40.825 12.9387 40.2667 12.3804 39.556 12.3804ZM15.0082 23.0198L16.7544 20.0046L21.1909 22.5731V17.4463H24.673V22.5731L29.1095 20.0046L30.8557 23.0198L26.4091 25.5883L30.8557 28.1466L29.1095 31.1618L24.673 28.5933V33.7202H21.1909V28.5933L16.7544 31.1618L15.0082 28.1466L19.4447 25.5883L15.0082 23.0198ZM37.5358 55.4254H8.39923C7.9728 55.4254 7.63782 55.0802 7.63782 54.664C7.63782 54.2477 7.9728 53.9026 8.39923 53.9026H37.5358C37.952 53.9026 38.2972 54.2477 38.2972 54.664C38.2972 55.0802 37.952 55.4254 37.5358 55.4254ZM37.5358 49.9026H8.39923C7.9728 49.9026 7.63782 49.5676 7.63782 49.1412C7.63782 48.7249 7.9728 48.3798 8.39923 48.3798H37.5358C37.952 48.3798 38.2972 48.7249 38.2972 49.1412C38.2972 49.5676 37.952 49.9026 37.5358 49.9026ZM37.5358 44.39H8.39923C7.9728 44.39 7.63782 44.0448 7.63782 43.6286C7.63782 43.2022 7.9728 42.8672 8.39923 42.8672H37.5358C37.952 42.8672 38.2972 43.2022 38.2972 43.6286C38.2972 44.0448 37.952 44.39 37.5358 44.39ZM37.5358 38.8673H8.39923C7.9728 38.8673 7.63782 38.5221 7.63782 38.1059C7.63782 37.6896 7.9728 37.3445 8.39923 37.3445H37.5358C37.952 37.3445 38.2972 37.6896 38.2972 38.1059C38.2972 38.5221 37.952 38.8673 37.5358 38.8673Z" fill="url(#paint2_linear)"/>
<path d="M51.6878 58.2073H59.7283L56.3882 64.7757C56.2563 65.0396 55.9923 65.1919 55.7081 65.1919C55.4137 65.1919 55.1599 65.0396 55.0279 64.7757L51.6878 58.2073Z" fill="url(#paint3_linear)"/>
<path d="M60.0227 29.1012H51.3934V56.6845H60.0227V29.1012Z" fill="url(#paint4_linear)"/>
<path d="M62.774 33.9335C62.6521 34.0046 62.5202 34.0351 62.3882 34.0351C62.1242 34.0351 61.8704 33.9031 61.7283 33.6594C61.2308 32.8269 60.977 31.893 60.977 30.9589V17.6901C60.977 17.6292 60.8247 17.477 60.5608 17.477H60.0227V27.5783H51.3934V16.4922C51.3934 14.1674 53.3224 12.2689 55.7081 12.2689C57.9009 12.2689 59.7182 13.8831 59.9821 15.9541H60.5608C61.6268 15.9541 62.4998 16.7358 62.4998 17.6901V30.9589C62.4998 31.6188 62.6826 32.2889 63.0379 32.8879C63.2511 33.2533 63.1394 33.7203 62.774 33.9335Z" fill="url(#paint5_linear)"/>
<defs>
<linearGradient id="paint0_linear" x1="11.5815" y1="0.817261" x2="35.9212" y2="4.54776" gradientUnits="userSpaceOnUse">
<stop stop-color="#D487D4"/>
<stop offset="1" stop-color="#A54EA5"/>
</linearGradient>
<linearGradient id="paint1_linear" x1="0.104797" y1="7.19275" x2="49.086" y2="10.5181" gradientUnits="userSpaceOnUse">
<stop stop-color="#D487D4"/>
<stop offset="1" stop-color="#A54EA5"/>
</linearGradient>
<linearGradient id="paint2_linear" x1="5.09979" y1="12.3804" x2="42.761" y2="14.7936" gradientUnits="userSpaceOnUse">
<stop stop-color="#D487D4"/>
<stop offset="1" stop-color="#A54EA5"/>
</linearGradient>
<linearGradient id="paint3_linear" x1="51.6878" y1="58.2073" x2="60.1186" y2="59.0299" gradientUnits="userSpaceOnUse">
<stop stop-color="#D487D4"/>
<stop offset="1" stop-color="#A54EA5"/>
</linearGradient>
<linearGradient id="paint4_linear" x1="51.3934" y1="29.1012" x2="60.5213" y2="29.3432" gradientUnits="userSpaceOnUse">
<stop stop-color="#D487D4"/>
<stop offset="1" stop-color="#A54EA5"/>
</linearGradient>
<linearGradient id="paint5_linear" x1="51.3934" y1="12.2689" x2="63.8072" y2="12.837" gradientUnits="userSpaceOnUse">
<stop stop-color="#D487D4"/>
<stop offset="1" stop-color="#A54EA5"/>
</linearGradient>
</defs>
</svg>
