<svg width="320" height="63" viewBox="0 0 320 63" fill="none" xmlns="http://www.w3.org/2000/svg">
<path d="M8.89313 44.8125L16.2419 10.0154H30.99C33.2906 10.0154 35.2881 10.4462 36.9813 11.3073C38.6744 12.1702 39.9919 13.3872 40.9288 14.9607C41.8656 16.5354 42.3338 18.3835 42.3338 20.5044C42.3338 22.7909 41.7425 24.8531 40.5588 26.6949C39.3756 28.5323 37.7631 29.9905 35.725 31.0683C33.6863 32.1454 31.3844 32.6827 28.8206 32.6827H19.7438L17.1788 44.8125H8.89313ZM21.1738 25.8717H28.1281C29.2794 25.8717 30.2819 25.6733 31.1375 25.2758C31.9925 24.8783 32.6575 24.3234 33.135 23.6104C33.6113 22.8986 33.8494 22.0614 33.8494 21.0996C33.8494 19.8411 33.43 18.8559 32.5913 18.1423C31.7538 17.4292 30.5619 17.0733 29.0156 17.0733H23.0469L21.1738 25.8717Z" fill="#5DBE8D"/>
<path d="M50.1781 45.0109C47.7756 45.0109 45.8681 44.3898 44.455 43.1477C43.0406 41.9049 42.3344 40.2225 42.3344 38.1035C42.3344 36.3782 42.7456 34.9037 43.5688 33.6773C44.3888 32.4521 45.5731 31.5079 47.1194 30.844C48.6644 30.1814 50.5056 29.8494 52.6425 29.8494C53.7288 29.8494 54.8213 29.9571 55.9244 30.1732C57.025 30.3892 58.085 30.6783 59.105 31.0424L59.3513 29.8015C59.6806 28.2759 59.4331 27.1497 58.6119 26.4203C57.7906 25.6908 56.3763 25.3255 54.3706 25.3255C53.5144 25.3255 52.57 25.4257 51.5344 25.6241C50.4969 25.8225 49.2894 26.1563 47.9094 26.6187L46.1325 20.9509C48.1381 20.2228 49.9875 19.6842 51.6806 19.3365C53.3738 18.9901 54.9769 18.8149 56.4906 18.8149C59.1856 18.8149 61.4144 19.254 63.1738 20.1308C64.9319 21.0095 66.1581 22.2598 66.8475 23.8837C67.5381 25.5075 67.6375 27.4653 67.1438 29.7499L63.8894 44.8138H56.1444L56.6381 42.6242C55.4225 43.4872 54.3206 44.1001 53.3344 44.4642C52.3463 44.8282 51.2931 45.0109 50.1781 45.0109ZM53.3344 39.8408C54.09 39.8408 54.8056 39.7513 55.4806 39.5674C56.1538 39.386 56.8038 39.1126 57.4281 38.7473L58.2163 35.1178C57.5919 34.9528 56.8869 34.8205 56.0969 34.721C55.3081 34.6221 54.5 34.5717 53.68 34.5717C52.3306 34.5717 51.2938 34.8211 50.5725 35.3188C49.8488 35.8145 49.4863 36.5275 49.4863 37.456C49.4863 38.1854 49.8225 38.7655 50.4969 39.1957C51.17 39.626 52.1175 39.8408 53.3344 39.8408Z" fill="#5DBE8D"/>
<path d="M70.9912 55.6989C70.3325 55.6989 69.6512 55.6498 68.945 55.5496C68.2375 55.4514 67.4581 55.2845 66.6019 55.0539L68.0319 48.3424C68.4594 48.4438 68.8881 48.5169 69.3137 48.566C69.7425 48.6164 70.1206 48.6404 70.45 48.6404C71.5994 48.6404 72.5375 48.4659 73.26 48.1182C73.9825 47.7698 74.5594 47.1821 74.9862 46.3538L75.5787 45.261L71.9287 19.1614H80.0169L81.645 36.4116L91.3119 19.1614H99.8444L82.4337 48.3909C80.9544 50.8771 79.285 52.7158 77.4275 53.9094C75.5706 55.1024 73.4244 55.6989 70.9912 55.6989Z" fill="#5DBE8D"/>
<path d="M103.241 44.8124L110.589 10.0146H136.141L134.563 17.1734H117.347L115.967 23.7854H128.15L126.669 30.7438H114.487L113.057 37.6537H130.566L128.988 44.8124H103.241Z" fill="white"/>
<path d="M168.613 55.2019L176.407 19.1632H184.15L183.658 21.7471C185.465 19.9242 187.637 19.0127 190.168 19.0127C191.977 19.0127 193.597 19.5355 195.027 20.5792C196.457 21.6236 197.599 23.0327 198.454 24.8046C199.309 26.5777 199.736 28.5575 199.736 30.7444C199.736 32.7003 199.399 34.5402 198.726 36.2629C198.051 37.9869 197.13 39.5031 195.963 40.8108C194.796 42.1216 193.431 43.1401 191.87 43.8683C190.308 44.5977 188.638 44.963 186.863 44.963C185.251 44.963 183.829 44.6229 182.596 43.9432C181.362 43.2648 180.369 42.2633 179.612 40.9367L176.456 55.2032H168.613V55.2019ZM186.715 25.624C185.169 25.624 183.773 26.1884 182.523 27.3147L180.698 35.8648C181.258 36.5943 181.963 37.1819 182.819 37.6285C183.672 38.0764 184.61 38.3006 185.63 38.3006C186.881 38.3006 187.989 37.9951 188.96 37.381C189.93 36.7675 190.694 35.9398 191.254 34.8954C191.813 33.8517 192.092 32.682 192.092 31.3907C192.092 29.7001 191.582 28.3175 190.562 27.2416C189.542 26.1639 188.261 25.624 186.715 25.624Z" fill="white"/>
<path d="M216.015 45.3592C213.612 45.3592 211.476 44.8446 209.601 43.8179C207.728 42.7911 206.256 41.3581 205.187 39.5182C204.117 37.6796 203.583 35.5833 203.583 33.2306C203.583 31.2748 203.946 29.4267 204.669 27.6869C205.391 25.9472 206.386 24.4083 207.652 23.0648C208.918 21.7225 210.391 20.6699 212.068 19.9078C213.744 19.1462 215.519 18.7651 217.394 18.7651C219.596 18.7651 221.528 19.2451 223.191 20.2063C224.849 21.1688 226.148 22.5105 227.086 24.2326C228.023 25.9566 228.493 27.9603 228.493 30.2487C228.493 31.0109 228.466 31.6981 228.417 32.311C228.368 32.9245 228.294 33.4964 228.195 34.0255H211.131C211.296 35.0201 211.633 35.8894 212.142 36.6364C212.652 37.3816 213.31 37.9617 214.116 38.375C214.921 38.7913 215.832 38.9979 216.852 38.9979C217.805 38.9979 218.694 38.8404 219.517 38.5249C220.337 38.2099 221.046 37.7381 221.638 37.1089L225.928 41.9805C224.318 43.1741 222.723 44.0364 221.143 44.5643C219.564 45.094 217.855 45.3592 216.015 45.3592ZM211.624 29.501H221.588C221.456 28.5745 221.185 27.7865 220.774 27.1408C220.364 26.4945 219.836 25.9887 219.196 25.6234C218.556 25.2606 217.805 25.0767 216.952 25.0767C216.162 25.0767 215.423 25.2606 214.732 25.6234C214.041 25.9887 213.433 26.5021 212.908 27.1648C212.38 27.828 211.954 28.6066 211.624 29.501Z" fill="white"/>
<path d="M230.762 44.8124L236.286 19.1613H244.129L243.29 23.1384C244.474 21.7463 245.774 20.6862 247.187 19.9568C248.6 19.2274 250.079 18.8621 251.627 18.8621C253.336 18.8621 254.758 19.2532 255.893 20.033C257.027 20.8103 257.808 21.8874 258.236 23.2619C258.663 24.6375 258.68 26.2375 258.286 28.0591L254.733 44.8117H246.891L250.047 30.0483C250.376 28.5895 250.229 27.3965 249.604 26.468C248.978 25.5402 247.991 25.0766 246.645 25.0766C245.888 25.0766 245.165 25.2341 244.474 25.5496C243.784 25.8646 243.109 26.3521 242.451 27.0148L238.604 44.8111H230.762V44.8124Z" fill="white"/>
<path d="M271.996 45.3592C269.628 45.3592 267.376 44.9939 265.239 44.2663C263.101 43.5369 261.325 42.56 259.912 41.3329L264.054 36.2132C265.797 37.3734 267.286 38.2011 268.519 38.6987C269.751 39.1963 270.978 39.4439 272.195 39.4439C273.148 39.4439 273.92 39.2455 274.513 38.848C275.104 38.4493 275.4 37.9378 275.4 37.3079C275.4 36.8424 275.244 36.4695 274.932 36.188C274.62 35.9064 274.118 35.6828 273.428 35.5178L268.742 34.3241C266.802 33.7597 265.313 32.8987 264.277 31.739C263.242 30.5794 262.724 29.1722 262.724 27.5137C262.724 24.763 263.627 22.61 265.437 21.051C267.245 19.4939 269.744 18.7141 272.934 18.7141C274.973 18.7141 276.912 19.0297 278.754 19.659C280.597 20.2882 282.291 21.2179 283.836 22.4431L279.644 27.2643C278.426 26.3698 277.2 25.6908 275.968 25.2272C274.735 24.7636 273.576 24.5312 272.491 24.5312C271.571 24.5312 270.863 24.6886 270.369 25.0036C269.877 25.3192 269.629 25.7746 269.629 26.3698C269.629 26.8353 269.784 27.1994 270.098 27.4658C270.411 27.7298 270.978 27.9792 271.8 28.2097L276.388 29.4028C278.426 29.9338 279.989 30.7696 281.074 31.9135C282.158 33.0561 282.701 34.44 282.701 36.0639C282.701 37.8225 282.234 39.4023 281.296 40.8101C280.358 42.2192 279.084 43.3297 277.473 44.1422C275.861 44.9523 274.035 45.3592 271.996 45.3592Z" fill="white"/>
<path d="M299.321 45.3592C296.921 45.3592 294.785 44.8446 292.91 43.8179C291.037 42.7911 289.564 41.3581 288.496 39.5182C287.427 37.6796 286.893 35.5833 286.893 33.2306C286.893 31.2748 287.255 29.4267 287.979 27.6869C288.701 25.9472 289.696 24.4083 290.962 23.0648C292.228 21.7225 293.699 20.6699 295.378 19.9078C297.053 19.1462 298.829 18.7651 300.703 18.7651C302.906 18.7651 304.837 19.2451 306.499 20.2063C308.159 21.1688 309.458 22.5105 310.396 24.2326C311.331 25.9566 311.802 27.9603 311.802 30.2487C311.802 31.0109 311.776 31.6981 311.727 32.311C311.676 32.9245 311.604 33.4964 311.504 34.0255H294.439C294.603 35.0201 294.939 35.8894 295.449 36.6364C295.958 37.3816 296.618 37.9617 297.422 38.375C298.228 38.7913 299.14 38.9979 300.159 38.9979C301.113 38.9979 302.001 38.8404 302.825 38.5249C303.645 38.2099 304.354 37.7381 304.944 37.1089L309.236 41.9805C307.626 43.1741 306.029 44.0364 304.451 44.5643C302.874 45.094 301.164 45.3592 299.321 45.3592ZM294.933 29.501H304.896C304.765 28.5745 304.493 27.7865 304.083 27.1408C303.671 26.4945 303.144 25.9887 302.504 25.6234C301.864 25.2606 301.114 25.0767 300.259 25.0767C299.471 25.0767 298.731 25.2606 298.041 25.6234C297.35 25.9887 296.74 26.5021 296.215 27.1648C295.689 27.828 295.26 28.6066 294.933 29.501Z" fill="white"/>
<path d="M158.854 29.4904L166.81 44.7483H156.528L152.463 36.3197L144.91 44.7483H134.34L149.058 29.0356" fill="white"/>
<path d="M169.119 7.56445L155.426 22.5042L151.591 14.5399H141.311L148.92 29.1773L152.461 36.3209L166.096 21.9588V21.9562L179.751 7.56445H169.119Z" fill="#5DBE8D"/>
</svg>
