<svg width="17" height="16" viewBox="0 0 17 16" fill="none" xmlns="http://www.w3.org/2000/svg">
<path d="M5 2.5C4.7 2.5 4.5 2.8 4.5 3V5.5H3.5V3C3.5 2.7 3.3 2.5 3 2.5C2.7 2.5 2.5 2.8 2.5 3V5.5H1.5V3C1.5 2.7 1.3 2.5 1 2.5C0.7 2.5 0.5 2.8 0.5 3V6.3C0.5 7.2 1.2 7.9 2 8V15C2 15.6 2.4 16 3 16C3.6 16 4 15.6 4 15V8C4.8 7.9 5.5 7.2 5.5 6.3V3C5.5 2.8 5.3 2.5 5 2.5ZM7 3V9H8V15C8 15.6 8.4 16 9 16C9.6 16 10 15.6 10 15V0C8.3 0 7 1.3 7 3ZM14 2C12.6 2 11.5 3.5 11.5 5.3C11.4 6.5 12 7.6 13 8.3V15C13 15.6 13.4 16 14 16C14.6 16 15 15.6 15 15V8.3C16 7.6 16.6 6.5 16.5 5.3C16.5 3.5 15.4 2 14 2Z" fill="#24282C"/>
</svg>
